<?xml version="1.0" encoding="UTF-8" standalone="no"?>
<!-- Created with Inkscape (http://www.inkscape.org/) -->

<svg
   width="793.70099"
   height="1122.5197"
   viewBox="0 0 210.00005 296.99999"
   version="1.1"
   id="svg1"
   xml:space="preserve"
   sodipodi:docname="change.svg"
   inkscape:version="1.3.2 (091e20e, 2023-11-25, custom)"
   xmlns:inkscape="http://www.inkscape.org/namespaces/inkscape"
   xmlns:sodipodi="http://sodipodi.sourceforge.net/DTD/sodipodi-0.dtd"
   xmlns="http://www.w3.org/2000/svg"
   xmlns:svg="http://www.w3.org/2000/svg"><sodipodi:namedview
     id="namedview1"
     pagecolor="#ffffff"
     bordercolor="#000000"
     borderopacity="0.25"
     inkscape:showpageshadow="2"
     inkscape:pageopacity="0.0"
     inkscape:pagecheckerboard="0"
     inkscape:deskcolor="#d1d1d1"
     inkscape:document-units="mm"
     inkscape:zoom="0.50191675"
     inkscape:cx="784.99073"
     inkscape:cy="865.6814"
     inkscape:window-width="1920"
     inkscape:window-height="1129"
     inkscape:window-x="-8"
     inkscape:window-y="-8"
     inkscape:window-maximized="1"
     inkscape:current-layer="g14" /><defs
     id="defs1"><inkscape:path-effect
       effect="powerclip"
       id="path-effect4"
       is_visible="true"
       lpeversion="1"
       inverse="true"
       flatten="false"
       hide_clip="false"
       message="Use fill-rule evenodd on &lt;b&gt;fill and stroke&lt;/b&gt; dialog if no flatten result after convert clip to paths." /><inkscape:path-effect
       effect="powerclip"
       id="path-effect3"
       is_visible="true"
       lpeversion="1"
       inverse="true"
       flatten="false"
       hide_clip="false"
       message="Use fill-rule evenodd on &lt;b&gt;fill and stroke&lt;/b&gt; dialog if no flatten result after convert clip to paths." /><clipPath
       clipPathUnits="userSpaceOnUse"
       id="clipPath3"><rect
         style="display:none;fill:#10ff00;fill-opacity:0.597561;stroke:none;stroke-width:0.298431"
         id="rect3"
         width="7.5"
         height="7.5"
         x="101.18771"
         y="101.97411"
         d="m 101.18771,101.97411 h 7.5 v 7.5 h -7.5 z" /><path
         id="lpe_path-effect3"
         style="fill:#10ff00;fill-opacity:0.597561;stroke:none;stroke-width:0.298431"
         class="powerclip"
         d="M 91.187706,91.974106 H 118.68771 V 119.47411 H 91.187706 Z m 10.000004,10.000004 v 7.5 h 7.5 v -7.5 z" /></clipPath><clipPath
       clipPathUnits="userSpaceOnUse"
       id="clipPath4"><circle
         style="display:none;fill:#00ff17;fill-opacity:1;stroke:none;stroke-width:0.227455"
         id="circle4"
         cx="147.14201"
         cy="148.08003"
         r="3.75"
         d="m 150.89201,148.08003 a 3.75,3.75 0 0 1 -3.75,3.75 3.75,3.75 0 0 1 -3.75,-3.75 3.75,3.75 0 0 1 3.75,-3.75 3.75,3.75 0 0 1 3.75,3.75 z" /><path
         id="lpe_path-effect4"
         style="fill:#00ff17;fill-opacity:1;stroke:none;stroke-width:0.227455"
         class="powerclip"
         d="m 133.39201,134.33003 h 27.5 v 27.5 h -27.5 z m 17.5,13.75 a 3.75,3.75 0 0 0 -3.75,-3.75 3.75,3.75 0 0 0 -3.75,3.75 3.75,3.75 0 0 0 3.75,3.75 3.75,3.75 0 0 0 3.75,-3.75 z" /></clipPath></defs><g
     inkscape:label="Layer 1"
     inkscape:groupmode="layer"
     id="layer1"><g
       id="g14"><g
         id="g15"
         inkscape:export-filename="g15.webp"
         inkscape:export-xdpi="96"
         inkscape:export-ydpi="96"><rect
           style="fill:#414141;fill-opacity:0.00396825;stroke:none;stroke-width:1.5908"
           id="rect13"
           width="396.875"
           height="264.58334"
           x="16.367996"
           y="55.81218" /><g
           id="g13"
           transform="matrix(2.3474552,0,0,2.3474552,-32.102276,-158.60525)"><path
             style="fill:#facc15;fill-opacity:1;stroke:none;stroke-width:0.264473"
             id="rect1"
             width="17.5"
             height="17.5"
             x="96.187706"
             y="96.974106"
             clip-path="url(#clipPath3)"
             inkscape:path-effect="#path-effect3"
             sodipodi:type="rect"
             d="M 96.187706,96.974106 H 113.68771 V 114.47411 H 96.187706 Z" /><path
             style="fill:#9b9b9b;fill-opacity:1;stroke:none;stroke-width:0.328156"
             id="path3"
             clip-path="url(#clipPath4)"
             inkscape:path-effect="#path-effect4"
             sodipodi:type="arc"
             sodipodi:cx="147.14201"
             sodipodi:cy="148.08003"
             sodipodi:rx="8.75"
             sodipodi:ry="8.75"
             d="m 155.89201,148.08003 a 8.75,8.75 0 0 1 -8.75,8.75 8.75,8.75 0 0 1 -8.75,-8.75 8.75,8.75 0 0 1 8.75,-8.75 8.75,8.75 0 0 1 8.75,8.75 z" /><path
             id="path4"
             style="fill:#9b9b9b;fill-opacity:1;stroke:none;stroke-width:0.264583"
             inkscape:transform-center-x="0.0029861542"
             inkscape:transform-center-y="-0.91352569"
             d="m 72.756009,130.24249 -9.662347,6.65494 3.34355,11.24563 11.728389,0.29589 3.905489,-11.06375 z m -0.130118,5.12891 3.990065,3.07941 -1.67425,4.77776 -5.025015,-0.12662 -1.431515,-4.85592 z"
             transform="matrix(0.92185041,-0.02319713,0.02419286,0.96142073,-7.0047983,16.126495)" /><path
             id="path9"
             style="fill:#9b9b9b;fill-opacity:1;stroke:none;stroke-width:0.264583"
             inkscape:transform-center-x="1.2458818e-06"
             inkscape:transform-center-y="-2.5087855e-06"
             d="m 92.074909,144.3508 -5.699632,9.34115 5.239886,9.60715 10.940177,0.26545 5.69964,-9.34171 -5.23989,-9.60659 z m 2.994405,5.4898 4.68866,0.11321 2.245476,4.11735 -2.442516,4.00359 -4.688647,-0.11377 -2.245481,-4.11734 z"
             transform="matrix(0.79939531,-0.02105646,0.01825044,0.92230302,24.282797,49.720717)" /><path
             style="fill:#9b9b9b;fill-opacity:1;stroke:none;stroke-width:0.264583"
             d="m 117.65476,107.57195 c 2.26218,3.409 0.42148,0.7078 6.87528,9.93612 0.74702,-1.44309 0.0182,0.0456 1.58152,-3.15947 8.29641,5.51524 15.42733,15.64513 16.85637,22.04106 4.36814,-1.56207 0.1131,0.0185 4.72735,-1.68523 -2.66618,-10.8598 -13.57407,-21.73036 -19.60681,-24.87968 1.54506,-3.35677 -0.006,-0.0263 1.5575,-3.31755 -11.9841,1.08327 -3.35093,0.22418 -11.99121,1.06475 z"
             id="path10"
             sodipodi:nodetypes="cccccccc" /><path
             style="fill:#9b9b9b;fill-opacity:1;stroke:none;stroke-width:0.264583"
             d="m 64.392848,135.36959 c 3.409,-2.26218 0.7078,-0.42148 9.93612,-6.87528 -1.44309,-0.74702 0.0456,-0.0182 -3.15947,-1.58152 5.51524,-8.29641 15.64513,-15.42733 22.04106,-16.85637 -1.56207,-4.36814 0.0185,-0.1131 -1.68523,-4.72735 -10.8598,2.66618 -21.73036,13.57407 -24.87968,19.60681 -3.35677,-1.54506 -0.0263,0.006 -3.31755,-1.5575 1.08327,11.9841 0.22418,3.35093 1.06475,11.99121 z"
             id="path11"
             sodipodi:nodetypes="cccccccc" /><path
             style="fill:#9b9b9b;fill-opacity:1;stroke:none;stroke-width:0.264583"
             d="m 91.915707,188.49411 c -2.26218,-3.409 -0.42148,-0.7078 -6.87528,-9.93612 -0.74702,1.44309 -0.0182,-0.0456 -1.58152,3.15947 -8.29641,-5.51524 -15.42733,-15.64513 -16.85637,-22.04106 -4.36814,1.56207 -0.1131,-0.0185 -4.72735,1.68523 2.66618,10.8598 13.57407,21.73036 19.60681,24.87968 -1.54506,3.35677 0.006,0.0263 -1.5575,3.31755 11.9841,-1.08327 3.35093,-0.22418 11.99121,-1.06475 z"
             id="path12"
             sodipodi:nodetypes="cccccccc" /><path
             style="fill:#9b9b9b;fill-opacity:1;stroke:none;stroke-width:0.264583"
             d="m 145.31501,160.83387 c -3.409,2.26218 -0.7078,0.42148 -9.93612,6.87528 1.44309,0.74702 -0.0456,0.0182 3.15947,1.58152 -5.51524,8.29641 -15.64513,15.42733 -22.04106,16.85637 1.56207,4.36814 -0.0185,0.1131 1.68523,4.72735 10.8598,-2.66618 21.73036,-13.57407 24.87968,-19.60681 3.35677,1.54506 0.0263,-0.006 3.31755,1.5575 -1.08327,-11.9841 -0.22418,-3.35093 -1.06475,-11.99121 z"
             id="path13"
             sodipodi:nodetypes="cccccccc" /></g></g></g></g></svg>
